sean_ultrabold.sfdir

StartChar: exclam
Encoding: 33 33 1
Width: 441
Flags: MW
HStem: 0 148<175 326 175 326> 702 20G<175 326 326 326>
VStem: 175 151<0 148 0 148> 190 123<229 229>
LayerCount: 2
Fore
SplineSet
190 229 m 1xd0
 175 722 l 1
 326 722 l 1xe0
 313 229 l 1
 190 229 l 1xd0
175 148 m 1
 326 148 l 1
 326 0 l 1
 175 0 l 1
 175 148 l 1
EndSplineSet
EndChar

StartChar: quotedbl
Encoding: 34 34 2
Width: 473
Flags: MW
HStem: 658 188<76 244 107 200 107 251 282 374>
LayerCount: 2
Fore
SplineSet
251 658 m 1
 282 846 l 1
 419 846 l 1
 374 658 l 1
 251 658 l 1
76 658 m 1
 107 846 l 1
 244 846 l 1
 200 658 l 1
 76 658 l 1
EndSplineSet
EndChar

StartChar: numbersign
Encoding: 35 35 3
Width: 679
Flags: MW
HStem: 219 81<73 93> 232 82<436 460> 439 82<209 233> 449 83<500 525>
LayerCount: 2
Fore
SplineSet
73 219 m 1x80
 93 300 l 1
 169 303 l 1
 209 439 l 1
 137 437 l 1
 157 518 l 1
 233 521 l 1xa0
 288 706 l 1
 371 706 l 1
 317 524 l 1
 441 529 l 1
 498 720 l 1
 581 720 l 1
 525 532 l 1
 588 534 l 1
 575 452 l 1
 500 449 l 1
 460 314 l 1
 523 316 l 1
 507 235 l 1
 436 232 l 1x50
 378 38 l 1
 295 38 l 1
 352 229 l 1
 229 225 l 1
 171 30 l 1
 88 30 l 1
 145 222 l 1
 73 219 l 1x80
293 442 m 1
 253 306 l 1
 376 311 l 1
 417 447 l 1
 293 442 l 1
EndSplineSet
EndChar

StartChar: quotesingle
Encoding: 39 39 4
Width: 297
Flags: MW
HStem: 658 188<80 241 118 204>
VStem: 80 161
LayerCount: 2
Fore
SplineSet
80 658 m 1
 118 846 l 1
 241 846 l 1
 204 658 l 1
 80 658 l 1
EndSplineSet
EndChar

StartChar: parenleft
Encoding: 40 40 5
Width: 481
Flags: MW
VStem: 53 146<231.5 431 231.5 439.5>
LayerCount: 2
Fore
SplineSet
409 852 m 1
 276 712 199 535 199 327 c 0
 199 136 270 -50 400 -192 c 1
 299 -295 l 1
 141 -129 53 93 53 322 c 0
 53 557 138 772 295 940 c 1
 409 852 l 1
EndSplineSet
EndChar

StartChar: parenright
Encoding: 41 41 6
Width: 483
Flags: MW
VStem: 279 148<222 422>
LayerCount: 2
Fore
SplineSet
279 323 m 0
 279 521 202 703 69 843 c 1
 170 946 l 1
 333 782 427 571 427 321 c 0
 427 88 336 -136 172 -303 c 1
 58 -216 l 1
 200 -73 279 121 279 323 c 0
EndSplineSet
EndChar

StartChar: plus
Encoding: 43 43 7
Width: 766
Flags: MW
HStem: 260 124<116 329 116 328>
VStem: 328 131<259 259 259 260 259 260>
LayerCount: 2
Fore
SplineSet
116 260 m 1
 116 384 l 1
 329 384 l 1
 329 588 l 1
 460 588 l 1
 459 383 l 1
 662 383 l 1
 662 259 l 1
 459 259 l 1
 458 18 l 1
 328 18 l 1
 328 260 l 1
 116 260 l 1
EndSplineSet
EndChar

StartChar: comma
Encoding: 44 44 8
Width: 364
Flags: MW
HStem: -125 217<63 304 125 159>
VStem: 63 241<-125 92>
LayerCount: 2
Fore
SplineSet
63 -125 m 1
 125 92 l 1
 304 92 l 1
 159 -125 l 1
 63 -125 l 1
EndSplineSet
EndChar

StartChar: hyphen
Encoding: 45 45 9
Width: 426
Flags: MW
HStem: 210 124<83 356 83 356>
VStem: 83 273<210 334 210 334>
LayerCount: 2
Fore
SplineSet
83 334 m 1
 356 334 l 1
 356 210 l 1
 83 210 l 1
 83 334 l 1
EndSplineSet
EndChar

StartChar: period
Encoding: 46 46 10
Width: 367
Flags: MW
HStem: 0 173<108 273 108 273>
VStem: 108 165<0 173 0 173>
LayerCount: 2
Fore
SplineSet
108 173 m 1
 273 173 l 1
 273 0 l 1
 108 0 l 1
 108 173 l 1
EndSplineSet
EndChar

StartChar: slash
Encoding: 47 47 11
Width: 594
Flags: W
LayerCount: 2
Fore
SplineSet
184 -68 m 1
 34 -68 l 1
 433 844 l 1
 584 844 l 1
 184 -68 l 1
EndSplineSet
EndChar

StartChar: zero
Encoding: 48 48 12
Width: 592
Flags: MW
HStem: -32 136<264 303 303 307> 381 143<297 300 300 339.5>
VStem: 37 152<205.5 278.5 205.5 320.5> 416 150<209.5 283>
LayerCount: 2
Fore
SplineSet
189 241 m 0
 189 170 229 104 299 104 c 0
 366 104 416 170 416 249 c 0
 416 317 374 381 305 381 c 0
 237 381 189 316 189 241 c 0
303 -32 m 2
 158 -32 37 88 37 246 c 0
 37 395 149 522 297 524 c 1
 300 524 l 2
 450 524 566 396 566 245 c 0
 566 92 451 -29 307 -32 c 1
 303 -32 l 2
EndSplineSet
EndChar

StartChar: one
Encoding: 49 49 13
Width: 366
Flags: MW
HStem: 0 21G<164 315 164 164>
VStem: 164 151<0 0>
LayerCount: 2
Fore
SplineSet
163 516 m 1
 314 516 l 1
 315 0 l 1
 164 0 l 1
 163 348 l 1
 80 271 l 1
 -4 362 l 1
 163 516 l 1
EndSplineSet
EndChar

StartChar: two
Encoding: 50 50 14
Width: 484
Flags: MW
HStem: 4 124<40 92 316 458 40 92> 409 129<186 230.5>
VStem: 295 137<304.5 338>
LayerCount: 2
Fore
SplineSet
295 315 m 0
 295 361 259 409 202 409 c 0
 167 409 134 387 108 354 c 1
 27 429 l 1
 82 496 148 538 224 538 c 0
 351 538 432 446 432 342 c 0
 432 240 381 168 316 128 c 1
 458 128 l 1
 458 4 l 1
 40 4 l 1
 40 128 l 1
 144 128 230 159 277 249 c 0
 289 271 295 294 295 315 c 0
EndSplineSet
EndChar

StartChar: three
Encoding: 51 51 15
Width: 587
Flags: MW
HStem: -264 120<198 246.5 198 298> 75 110<166 168 166 166> 409 127<205 251>
VStem: 347 147<284 339.5> 374 156<-63.5 -25>
LayerCount: 2
Fore
SplineSet
347 307 m 0xf0
 347 372 288 409 214 409 c 0
 168 409 128 390 95 353 c 1
 41 445 l 1
 99 506 167 536 243 536 c 0
 390 536 494 457 494 320 c 0xf0
 494 248 464 191 414 150 c 1
 471 122 530 55 530 -32 c 0
 530 -165 373 -264 223 -264 c 0
 171 -264 120 -253 71 -232 c 1
 120 -119 l 1
 149 -136 182 -144 214 -144 c 0
 279 -144 374 -99 374 -28 c 0xe8
 374 -22 374 -16 372 -9 c 0
 353 75 262 75 168 75 c 2
 166 75 l 1
 165 185 l 1
 262 185 347 216 347 307 c 0xf0
EndSplineSet
EndChar

StartChar: four
Encoding: 52 52 16
Width: 630
Flags: MW
HStem: 19 124<217 343 43 43 494 601>
VStem: 343 150<19 19 19 143>
LayerCount: 2
Fore
SplineSet
217 143 m 1
 343 143 l 1
 345 324 l 1
 217 143 l 1
43 143 m 1
 346 527 l 1
 496 527 l 1
 494 143 l 1
 601 143 l 1
 601 19 l 1
 493 19 l 1
 492 -222 l 1
 341 -222 l 1
 343 19 l 1
 43 19 l 1
 43 143 l 1
EndSplineSet
EndChar

StartChar: five
Encoding: 53 53 17
Width: 540
Flags: MW
HStem: -259 129<239.5 305.5 239 352.5> 151 125<283.5 312> 410 124<218 455 218 218>
VStem: 80 138<146 410> 418 136<-29 60.5>
LayerCount: 2
Fore
SplineSet
296 276 m 0
 441 276 554 182 554 9 c 0
 554 -146 433 -259 272 -259 c 0
 207 -259 136 -241 64 -199 c 1
 124 -90 l 1
 172 -118 218 -130 260 -130 c 0
 351 -130 418 -71 418 13 c 0
 418 108 353 151 271 151 c 0
 254 151 236 149 217 146 c 1
 80 146 l 1
 81 534 l 1
 455 534 l 1
 455 410 l 1
 218 410 l 1
 218 269 l 1
 245 274 271 276 296 276 c 0
EndSplineSet
EndChar

StartChar: six
Encoding: 54 54 18
Width: 608
Flags: MW
HStem: -13 146<283.5 345.5 283.5 391> 335 110<260 414.5>
VStem: 40 145<234.5 282.5 234.5 317.5> 420 161<194.5 253.5>
LayerCount: 2
Fore
SplineSet
499 761 m 1
 550 634 l 1
 468 596 391 548 320 491 c 0
 295 471 271 450 251 426 c 1
 282 438 316 445 350 445 c 0
 479 445 581 364 581 231 c 0
 581 100 464 -13 318 -13 c 0
 156 -13 40 107 40 266 c 0
 40 369 93 466 165 545 c 1
 255 646 370 721 499 761 c 1
420 222 m 0
 420 285 353 335 275 335 c 0
 245 335 215 328 189 314 c 1
 186 301 185 289 185 276 c 0
 185 193 249 133 318 133 c 0
 373 133 420 167 420 222 c 0
EndSplineSet
EndChar

StartChar: seven
Encoding: 55 55 19
Width: 590
Flags: MW
HStem: 395 137<98 534>
LayerCount: 2
Fore
SplineSet
98 532 m 1
 534 532 l 1
 534 394 l 1
 228 -222 l 1
 68 -222 l 1
 370 394 l 1
 98 395 l 1
 98 532 l 1
EndSplineSet
EndChar

StartChar: eight
Encoding: 56 56 20
Width: 599
Flags: MW
HStem: -53 119<293 350 293 350> 580 123<279.5 322>
VStem: 72 148 88 135<492.5 534 492.5 564> 389 146<484.5 528.5> 417 128<121 173>
LayerCount: 2
Fore
SplineSet
298 580 m 0xd8
 261 580 223 555 223 513 c 0
 223 472 267 436 322 407 c 1
 360 433 389 466 389 503 c 0
 389 554 346 580 298 580 c 0xd8
442 348 m 1
 502 307 545 249 545 168 c 0
 545 44 431 -53 297 -53 c 2
 293 -53 l 1
 177 -51 75 29 72 140 c 1xe4
 71 221 124 282 192 330 c 1
 132 373 88 433 88 505 c 0
 88 623 195 703 313 703 c 0
 433 703 535 621 535 511 c 0
 535 444 496 389 442 348 c 1
328 66 m 0
 372 66 417 95 417 147 c 0
 417 199 364 239 302 271 c 1
 257 245 220 212 220 166 c 0
 220 110 269 66 328 66 c 0
EndSplineSet
EndChar

StartChar: nine
Encoding: 57 57 21
Width: 616
Flags: MW
HStem: 61 122<302.5 304.5> 400 148<271.5 330>
VStem: 48 164<275 333.5 275 365> 425 147<234 285>
LayerCount: 2
Fore
SplineSet
304 548 m 0
 479 548 572 399 572 246 c 0
 572 112 508 1 420 -91 c 1
 344 -168 251 -226 149 -261 c 1
 93 -121 l 1
 202 -90 303 -20 366 72 c 1
 342 65 317 61 292 61 c 0
 154 61 48 154 48 297 c 0
 48 433 164 548 304 548 c 0
212 308 m 0
 212 242 264 183 341 183 c 0
 371 183 400 193 423 211 c 1
 424 220 425 229 425 239 c 0
 425 331 362 400 298 400 c 0
 245 400 212 359 212 308 c 0
EndSplineSet
EndChar

StartChar: colon
Encoding: 58 58 22
Width: 391
Flags: MW
HStem: 0 153<130 281 130 281> 341 153<130 281 130 281>
VStem: 130 151<0 153 0 153 341 494>
LayerCount: 2
Fore
SplineSet
130 153 m 1
 281 153 l 1
 281 0 l 1
 130 0 l 1
 130 153 l 1
130 494 m 1
 281 494 l 1
 281 341 l 1
 130 341 l 1
 130 494 l 1
EndSplineSet
EndChar

StartChar: semicolon
Encoding: 59 59 23
Width: 364
Flags: MW
HStem: 341 153<132 283 132 283>
VStem: 132 151<341 494 341 494>
LayerCount: 2
Fore
SplineSet
132 341 m 1
 132 494 l 1
 283 494 l 1
 283 341 l 1
 132 341 l 1
49 -95 m 1
 132 92 l 1
 297 92 l 1
 173 -95 l 1
 49 -95 l 1
EndSplineSet
EndChar

StartChar: less
Encoding: 60 60 24
Width: 831
Flags: W
LayerCount: 2
Fore
SplineSet
292 301 m 1
 710 112 l 1
 710 -39 l 1
 129 224 l 1
 129 375 l 1
 700 645 l 1
 700 494 l 1
 292 301 l 1
EndSplineSet
EndChar

StartChar: equal
Encoding: 61 61 25
Width: 851
Flags: MW
HStem: 155 124<132 722 132 722> 378 123<132 722 132 722>
LayerCount: 2
Fore
SplineSet
132 279 m 1
 722 279 l 1
 722 155 l 1
 132 155 l 1
 132 279 l 1
132 501 m 1
 722 501 l 1
 722 378 l 1
 132 378 l 1
 132 501 l 1
EndSplineSet
EndChar

StartChar: greater
Encoding: 62 62 26
Width: 831
Flags: W
LayerCount: 2
Fore
SplineSet
145 -39 m 1
 145 112 l 1
 554 301 l 1
 132 494 l 1
 132 645 l 1
 718 377 l 1
 718 226 l 1
 145 -39 l 1
EndSplineSet
EndChar

StartChar: question
Encoding: 63 63 27
Width: 578
Flags: MW
HStem: -10 169<190 368 190 368> 226 204<205 250.5 205 355 204 250.5> 662 141<281.5 311>
VStem: 190 178<-10 159 -10 159> 205 151<321 430 321 430> 393 166<536.5 586>
LayerCount: 2
Fore
SplineSet
205 430 m 1xec
 296 430 393 463 393 554 c 0
 393 618 339 662 283 662 c 0
 257 662 229 652 207 630 c 1
 147 738 l 1
 198 783 254 803 309 803 c 0
 440 803 559 691 559 556 c 0
 559 517 549 475 526 434 c 0
 491 369 428 337 356 321 c 1
 355 226 l 1
 204 226 l 1
 205 352 l 1
 205 430 l 1xec
368 -10 m 1xf4
 190 -10 l 1
 190 159 l 1
 368 159 l 1
 368 -10 l 1xf4
EndSplineSet
EndChar

StartChar: at
Encoding: 64 64 28
Width: 852
Flags: MW
HStem: -171 93<451 455 451 500.5> 14 86<614 643 614 664> 28 77<396 433> 334 91<413 459.5> 498 89<361 439 439 441>
VStem: 60 94<133.5 215 133.5 313> 234 98<183 245 183 274> 487 98<142 145 130.5 145.5> 513 95<283 338> 707 96<199 313.5>
LayerCount: 2
Fore
SplineSet
585 142 m 0xbf40
 585 119 604 100 624 100 c 0
 662 100 707 156 707 242 c 0
 707 385 586 497 441 498 c 1
 439 498 l 2
 283 498 155 371 154 215 c 1
 154 52 288 -78 451 -78 c 2
 455 -78 l 1
 530 -77 601 -46 653 8 c 1
 717 -64 l 1
 645 -133 550 -171 451 -171 c 0
 234 -171 60 -4 60 207 c 0
 60 419 234 587 444 587 c 0
 646 587 803 437 803 251 c 0
 803 116 712 14 616 14 c 0xdf40
 577 14 537 34 516 58 c 1
 486 39 451 28 415 28 c 0
 306 28 234 111 234 217 c 0
 234 331 329 425 444 425 c 0
 520 425 608 374 608 302 c 0xbec0
 608 292 594 206 587 161 c 0
 586 155 585 148 585 142 c 0xbf40
332 213 m 0
 332 153 370 105 422 105 c 0
 451 105 474 121 487 142 c 1xbf40
 487 149 488 157 490 164 c 0
 499 205 513 273 513 293 c 0xbec0
 513 295 512 297 512 298 c 0
 500 322 473 334 446 334 c 0
 380 334 332 277 332 213 c 0
EndSplineSet
EndChar

StartChar: A
Encoding: 65 65 29
Width: 770
Flags: MW
HStem: 0 21G<35 196 35 35> 155 117<311 489 311 525 262 489> 701 20G<350 501 501 501>
LayerCount: 2
Fore
SplineSet
489 272 m 1
 414 515 l 1
 311 272 l 1
 489 272 l 1
525 155 m 1
 262 155 l 1
 196 0 l 1
 35 0 l 1
 350 721 l 1
 501 721 l 1
 729 1 l 1
 573 1 l 1
 525 155 l 1
EndSplineSet
EndChar

StartChar: B
Encoding: 66 66 30
Width: 654
Flags: MW
HStem: 0 117<232 294 232 294> 343 114<281 291 291 324.5 232 337> 605 117<232 289 232 232>
VStem: 81 151<117 342 457 605> 414 151<507.5 566> 458 148<184 262.5 142.5 264.5>
LayerCount: 2
Fore
SplineSet
289 722 m 2xf4
 431 722 565 685 565 536 c 0xf8
 565 477 535 431 487 399 c 1
 559 364 606 306 606 219 c 0
 606 66 463 0 294 0 c 2
 81 0 l 1
 81 722 l 1
 289 722 l 2xf4
414 533 m 0
 414 599 351 605 289 605 c 2
 232 605 l 1
 232 457 l 1
 291 457 l 2
 358 457 414 482 414 533 c 0
294 117 m 2
 377 117 458 140 458 228 c 0xf4
 458 301 383 343 291 343 c 0
 271 343 252 343 232 342 c 1
 232 117 l 1
 294 117 l 2
EndSplineSet
EndChar

StartChar: C
Encoding: 67 67 31
Width: 690
Flags: MW
HStem: -6 150<377.5 467> 586 148<374.5 463 302.5 474.5>
VStem: 47 167<298.5 437.5 298.5 476>
LayerCount: 2
Fore
SplineSet
447 144 m 0
 509 144 559 156 610 181 c 1
 677 53 l 1
 598 15 512 -6 422 -6 c 0
 195 -6 47 132 47 362 c 0
 47 590 195 734 410 734 c 0
 516 734 596 708 674 667 c 1
 613 544 l 1
 561 572 504 586 445 586 c 0
 304 586 214 509 214 366 c 0
 214 231 308 144 447 144 c 0
EndSplineSet
EndChar

StartChar: D
Encoding: 68 68 32
Width: 703
Flags: MW
HStem: 0 151<201 284 284 339> 572 150<201 279 279 303 201 201>
VStem: 50 151<151 572 151 722 151 722> 518 165<278.5 412>
LayerCount: 2
Fore
SplineSet
279 722 m 2
 516 722 683 596 683 353 c 0
 683 132 565 0 339 0 c 2
 50 0 l 1
 50 722 l 1
 279 722 l 2
518 343 m 0
 518 481 433 572 303 572 c 2
 201 572 l 1
 201 151 l 1
 284 151 l 2
 428 151 518 214 518 343 c 0
EndSplineSet
EndChar

StartChar: E
Encoding: 69 69 33
Width: 630
Flags: MW
HStem: 0 144<237 564 237 564> 301 144<237 456 237 456> 578 144<237 532 237 237>
VStem: 86 151<144 301 445 578>
LayerCount: 2
Fore
SplineSet
86 0 m 1
 86 722 l 1
 532 722 l 1
 532 578 l 1
 237 578 l 1
 237 445 l 1
 456 445 l 1
 456 301 l 1
 237 301 l 1
 237 144 l 1
 564 144 l 1
 564 0 l 1
 86 0 l 1
EndSplineSet
EndChar

StartChar: F
Encoding: 70 70 34
Width: 595
Flags: MW
HStem: 0 21G<86 86 86 237> 301 144<237 469 237 469> 578 144<237 536 237 237>
VStem: 86 151<0 301 445 578>
LayerCount: 2
Fore
SplineSet
86 0 m 1
 86 722 l 1
 536 722 l 1
 536 578 l 1
 237 578 l 1
 237 445 l 1
 469 445 l 1
 469 301 l 1
 237 301 l 1
 237 0 l 1
 86 0 l 1
EndSplineSet
EndChar

StartChar: G
Encoding: 71 71 35
Width: 784
Flags: MW
HStem: -6 127<372 469 372 469.5> 242 130<482 584 482 714> 539 21G<626 626> 585 145<382 483 321 485>
VStem: 51 157<275 419 275 460.5> 584 130<149 242 242 242>
LayerCount: 2
Fore
SplineSet
441 121 m 0
 497 121 538 132 584 149 c 1
 584 242 l 1
 482 242 l 1
 482 372 l 1
 714 372 l 1
 714 75 l 1
 623 23 525 -6 414 -6 c 0
 195 -6 51 125 51 345 c 0
 51 576 209 730 433 730 c 0
 533 730 611 706 687 662 c 1
 626 539 l 1
 574 569 516 585 454 585 c 0
 310 585 208 494 208 344 c 0
 208 206 303 121 441 121 c 0
EndSplineSet
EndChar

StartChar: H
Encoding: 72 72 36
Width: 763
Flags: MW
HStem: 0 21G<65 215 65 65 557 708 557 557> 294 137<216 557 216 557 215 557> 702 20G<65 216 216 216 557 708 708 708>
VStem: 65 150<0 294 0 722> 557 151<0 294 294 294 431 722 0 722>
LayerCount: 2
Fore
SplineSet
557 722 m 1
 708 722 l 1
 708 0 l 1
 557 0 l 1
 557 294 l 1
 215 294 l 1
 215 0 l 1
 65 0 l 1
 65 722 l 1
 216 722 l 1
 216 431 l 1
 557 431 l 1
 557 722 l 1
EndSplineSet
EndChar

StartChar: I
Encoding: 73 73 37
Width: 277
Flags: MW
HStem: 0 21G<68 68 68 219> 702 20G<69 220 220 220>
VStem: 68 151<0 0>
LayerCount: 2
Fore
SplineSet
68 0 m 1
 69 722 l 1
 220 722 l 1
 219 0 l 1
 68 0 l 1
EndSplineSet
EndChar

StartChar: J
Encoding: 74 74 38
Width: 336
Flags: MW
HStem: -246 126<44 61 44 119> 702 20G<126 277 277 277>
VStem: 126 151<0 722>
LayerCount: 2
Fore
SplineSet
277 0 m 2
 277 -129 184 -246 54 -246 c 0
 14 -246 -24 -233 -56 -209 c 1
 6 -103 l 1
 19 -115 36 -120 52 -120 c 0
 70 -120 87 -114 101 -100 c 0
 126 -75 126 -36 126 0 c 2
 126 722 l 1
 277 722 l 1
 277 0 l 2
EndSplineSet
EndChar

StartChar: K
Encoding: 75 75 39
Width: 674
Flags: MW
HStem: 0 21G<68 68 68 219 457 457 457 638> 702 20G<68 219 219 219 455 639 639 639>
VStem: 68 151<0 262 490 722>
LayerCount: 2
Fore
SplineSet
68 0 m 1
 68 722 l 1
 219 722 l 1
 219 490 l 1
 455 722 l 1
 639 722 l 1
 284 371 l 1
 638 0 l 1
 457 0 l 1
 219 262 l 1
 219 0 l 1
 68 0 l 1
EndSplineSet
EndChar

StartChar: L
Encoding: 76 76 40
Width: 580
Flags: MW
HStem: 0 144<219 538 219 538> 702 20G<68 219 219 219>
VStem: 68 151<144 722 144 722 144 722>
LayerCount: 2
Fore
SplineSet
68 0 m 1
 68 722 l 1
 219 722 l 1
 219 144 l 1
 538 144 l 1
 538 0 l 1
 68 0 l 1
EndSplineSet
EndChar

StartChar: M
Encoding: 77 77 41
Width: 878
Flags: MW
HStem: 0 21G<36 187 36 36 361 505 361 361 682 682 682 833> 702 20G<90 241 241 241 667 767 767 767>
LayerCount: 2
Fore
SplineSet
650 397 m 1
 505 0 l 1
 361 0 l 1
 213 395 l 1
 187 0 l 1
 36 0 l 1
 90 722 l 1
 241 722 l 1
 427 187 l 1
 617 723 l 1
 667 722 l 1
 767 722 l 1
 833 0 l 1
 682 0 l 1
 650 397 l 1
EndSplineSet
EndChar

StartChar: N
Encoding: 78 78 42
Width: 773
Flags: MW
HStem: 0 21G<68 68 68 219 574 574 574 725> 702 20G<68 219 219 219 574 725 725 725>
VStem: 68 151<0 494 0 722> 574 151<0 722 228 722 0 722>
LayerCount: 2
Fore
SplineSet
68 0 m 1
 68 722 l 1
 219 722 l 1
 574 228 l 1
 574 722 l 1
 725 722 l 1
 725 0 l 1
 574 0 l 1
 219 494 l 1
 219 0 l 1
 68 0 l 1
EndSplineSet
EndChar

StartChar: O
Encoding: 79 79 43
Width: 760
Flags: MW
HStem: -6 137<326.5 449 326.5 489> 591 138<320.5 443.5>
VStem: 32 161<291 421.5 291 469> 577 161<297.5 427.5>
LayerCount: 2
Fore
SplineSet
384 591 m 0
 257 591 193 488 193 355 c 0
 193 227 269 131 384 131 c 0
 514 131 577 232 577 363 c 0
 577 492 503 591 384 591 c 0
383 -6 m 0
 169 -6 32 146 32 362 c 0
 32 576 175 729 384 729 c 0
 602 729 738 579 738 360 c 0
 738 147 595 -6 383 -6 c 0
EndSplineSet
EndChar

StartChar: P
Encoding: 80 80 44
Width: 572
Flags: MW
HStem: 0 21G<68 219 68 68> 220 135<300.5 316.5 268 389.5> 585 137<219 265 219 219>
VStem: 68 151<0 235 0 366 366 585> 415 153<435.5 470.5 390 510.5>
LayerCount: 2
Fore
SplineSet
317 220 m 0
 284 220 247 226 219 235 c 1
 219 0 l 1
 68 0 l 1
 68 722 l 1
 265 722 l 2
 403 722 516 669 555 540 c 0
 564 512 568 484 568 457 c 0
 568 323 462 220 317 220 c 0
415 467 m 0
 415 554 339 585 265 585 c 2
 219 585 l 1
 219 366 l 1
 238 359 258 355 278 355 c 0
 355 355 415 404 415 467 c 0
EndSplineSet
EndChar

StartChar: Q
Encoding: 81 81 45
Width: 765
Flags: MW
HStem: -229 123<764 764> 585 143<322 447>
VStem: 27 158<298 427.5 298 469> 589 157<295 423>
LayerCount: 2
Fore
SplineSet
506 13 m 1
 569 -47 660 -95 764 -106 c 1
 764 -229 l 1
 659 -228 557 -195 472 -134 c 0
 423 -98 381 -54 348 -4 c 1
 158 12 27 152 27 362 c 0
 27 576 174 728 389 728 c 0
 602 728 746 580 746 359 c 0
 746 190 653 60 506 13 c 1
387 585 m 0
 257 585 185 492 185 363 c 0
 185 233 268 136 387 136 c 0
 518 136 589 232 589 358 c 0
 589 488 507 585 387 585 c 0
EndSplineSet
EndChar

StartChar: R
Encoding: 82 82 46
Width: 695
Flags: MW
HStem: 0 21G<90 241 90 90 521 694 521 521> 285 130<241 280 241 280> 578 144<241 304 241 241>
VStem: 90 151<0 285 0 415 415 578> 447 149<464.5 533.5>
LayerCount: 2
Fore
SplineSet
304 722 m 2
 460 722 596 664 596 506 c 0
 596 420 546 358 468 322 c 1
 694 0 l 1
 521 0 l 1
 322 287 l 1
 308 286 294 285 280 285 c 2
 241 285 l 1
 241 0 l 1
 90 0 l 1
 90 722 l 1
 304 722 l 2
447 497 m 0
 447 570 376 578 304 578 c 2
 241 578 l 1
 241 415 l 1
 280 415 l 2
 367 415 447 432 447 497 c 0
EndSplineSet
EndChar

StartChar: S
Encoding: 83 83 47
Width: 598
Flags: MW
HStem: -7 137<266 328 266 370.5> 598 133<269.5 317.5>
VStem: 51 162<516.5 562 516.5 597.5> 396 173<173 225.5>
LayerCount: 2
Fore
SplineSet
289 598 m 0
 250 598 213 583 213 541 c 0
 213 492 298 460 366 433 c 1
 467 395 569 329 569 200 c 0
 569 78 449 -7 292 -7 c 0
 205 -7 129 11 53 39 c 1
 91 178 l 1
 157 146 229 130 303 130 c 0
 353 130 396 148 396 198 c 0
 396 253 333 282 275 305 c 0
 169 346 51 407 51 542 c 0
 51 653 155 731 293 731 c 0
 372 731 436 712 498 685 c 1
 450 563 l 1
 401 582 346 598 289 598 c 0
EndSplineSet
EndChar

StartChar: T
Encoding: 84 84 48
Width: 630
Flags: MW
HStem: 0 21G<237 388 237 237> 584 144<25 617 25 237 388 388 388 617>
VStem: 237 151<0 584 0 584>
LayerCount: 2
Fore
SplineSet
25 584 m 1
 25 728 l 1
 617 728 l 1
 617 584 l 1
 388 584 l 1
 388 0 l 1
 237 0 l 1
 237 584 l 1
 25 584 l 1
EndSplineSet
EndChar

StartChar: U
Encoding: 85 85 49
Width: 710
Flags: MW
HStem: -6 144<323 433.5 323 460.5> 702 20G<57 208 208 208 527 677 677 677>
VStem: 58 150<292 329> 527 150<317 347 347 722>
LayerCount: 2
Fore
SplineSet
57 722 m 1
 208 722 l 1
 208 359 l 2
 208 225 261 138 385 138 c 0
 482 138 527 212 527 317 c 2
 527 722 l 1
 677 722 l 1
 677 347 l 2
 677 133 564 -6 357 -6 c 0
 156 -6 58 121 58 329 c 2
 57 722 l 1
EndSplineSet
EndChar

StartChar: V
Encoding: 86 86 50
Width: 780
Flags: MW
HStem: 0 21G<319 484 319 319> 702 20G<44 208 208 208 598 755 755 755>
LayerCount: 2
Fore
SplineSet
755 722 m 1
 484 0 l 1
 319 0 l 1
 44 722 l 1
 208 722 l 1
 401 213 l 1
 598 722 l 1
 755 722 l 1
EndSplineSet
EndChar

StartChar: W
Encoding: 87 87 51
Width: 964
Flags: MW
HStem: 0 21G<266 402 266 266 607 743 607 607> 702 20G<36 187 187 187 435 569 569 569 799 949 949 949>
LayerCount: 2
Fore
SplineSet
949 722 m 1
 743 0 l 1
 607 0 l 1
 506 450 l 1
 402 0 l 1
 266 0 l 1
 36 722 l 1
 187 722 l 1
 325 252 l 1
 435 722 l 1
 569 722 l 1
 674 252 l 1
 799 722 l 1
 949 722 l 1
EndSplineSet
EndChar

StartChar: X
Encoding: 88 88 52
Width: 700
Flags: MW
HStem: 0 21G<10 181 10 10 515 679 515 515> 702 20G<53 218 218 218 519 691 691 691>
LayerCount: 2
Fore
SplineSet
53 722 m 1
 218 722 l 1
 362 496 l 1
 519 722 l 1
 691 722 l 1
 439 376 l 1
 679 0 l 1
 515 0 l 1
 355 250 l 1
 181 0 l 1
 10 0 l 1
 279 368 l 1
 53 722 l 1
EndSplineSet
EndChar

StartChar: Y
Encoding: 89 89 53
Width: 635
Flags: MW
HStem: 0 21G<254 405 254 254> 702 20G<24 182 182 182 485 649 649 649>
VStem: 254 151<0 304 304 304>
LayerCount: 2
Fore
SplineSet
485 722 m 1
 649 722 l 1
 405 338 l 1
 405 0 l 1
 254 0 l 1
 254 304 l 1
 24 722 l 1
 182 722 l 1
 324 457 l 1
 485 722 l 1
EndSplineSet
EndChar

StartChar: Z
Encoding: 90 90 54
Width: 677
Flags: MW
HStem: -4 137<238 628 60 60> 582 137<123 603 123 425 123 603>
LayerCount: 2
Fore
SplineSet
123 582 m 1
 123 719 l 1
 603 719 l 1
 603 582 l 1
 238 133 l 1
 628 133 l 1
 628 -4 l 1
 60 -4 l 1
 60 133 l 1
 425 582 l 1
 123 582 l 1
EndSplineSet
EndChar

StartChar: underscore
Encoding: 95 95 55
Width: 730
Flags: MW
HStem: -282 151<51 691 51 691>
LayerCount: 2
Fore
SplineSet
51 -131 m 1
 691 -131 l 1
 691 -282 l 1
 51 -282 l 1
 51 -131 l 1
EndSplineSet
EndChar

StartChar: grave
Encoding: 96 96 56
Width: 371
Flags: MW
HStem: 656 190<199 199 199 215 50 350>
VStem: 50 300<656 846>
LayerCount: 2
Fore
SplineSet
199 656 m 1
 50 846 l 1
 215 846 l 1
 350 656 l 1
 199 656 l 1
EndSplineSet
EndChar

StartChar: a
Encoding: 97 97 57
Width: 647
Flags: MW
HStem: -11 120<269 282.5> 0 21G<399 550 399 399> 247 100<318.5 359.5 275.5 364> 428 116<258 304.5>
VStem: 70 150<139.5 189 139.5 211> 399 151<0 50 50 50 163 245 245 245>
LayerCount: 2
Fore
SplineSet
398 345 m 1xbc
 392 401 338 428 271 428 c 0
 226 428 180 414 139 394 c 1
 89 495 l 1
 153 526 223 544 293 544 c 0
 441 544 550 472 550 342 c 2
 550 0 l 1
 399 0 l 1x7c
 399 50 l 1
 358 12 311 -11 254 -11 c 0
 147 -11 70 51 70 145 c 0
 70 277 199 347 352 347 c 0
 367 347 382 346 398 345 c 1xbc
220 156 m 0
 220 123 251 109 287 109 c 0xbc
 337 109 371 129 399 163 c 1
 399 245 l 1
 385 246 371 247 357 247 c 0
 280 247 220 222 220 156 c 0
EndSplineSet
EndChar

StartChar: b
Encoding: 98 98 58
Width: 613
Flags: MW
HStem: -10 114<320.5 342 279.5 419.5> 0 21G<55 206 55 55> 436 103<277.5 432.5> 763 20G<55 206 206 206>
VStem: 55 151<0 30 0 136 136 407 494 783> 441 156<212.5 301.5>
LayerCount: 2
Fore
SplineSet
348 -10 m 0xbc
 293 -10 242 8 206 30 c 1
 206 0 l 1
 55 0 l 1x7c
 55 783 l 1
 206 783 l 1
 206 494 l 1
 254 522 310 539 362 539 c 0
 503 539 597 410 597 255 c 0
 597 104 491 -10 348 -10 c 0xbc
294 436 m 0
 261 436 233 424 206 407 c 1
 206 136 l 1
 231 115 263 104 296 104 c 0xbc
 388 104 441 174 441 251 c 0
 441 352 377 436 294 436 c 0
EndSplineSet
EndChar

StartChar: c
Encoding: 99 99 59
Width: 497
Flags: MW
HStem: -11 130<296.5 349.5> 415 125<291 343.5 227.5 349>
VStem: 32 155<224.5 307.5 224.5 349.5>
LayerCount: 2
Fore
SplineSet
187 265 m 0
 187 184 248 119 345 119 c 0
 376 119 404 128 431 148 c 1
 492 52 l 1
 438 10 381 -11 318 -11 c 0
 145 -11 32 100 32 272 c 0
 32 427 147 540 308 540 c 0
 379 540 426 523 475 484 c 1
 423 384 l 1
 395 405 364 415 334 415 c 0
 248 415 187 350 187 265 c 0
EndSplineSet
EndChar

StartChar: d
Encoding: 100 100 60
Width: 648
Flags: MW
HStem: -6 123<297 310> 426 122<296 317.5 222 360.5> 763 20G<440 591 591 591>
VStem: 46 151<233.5 324 233.5 348.5> 442 150
LayerCount: 2
Fore
SplineSet
344 426 m 0
 248 426 197 367 197 281 c 0
 197 186 257 117 337 117 c 0
 381 117 417 136 441 159 c 1
 441 236 442 312 442 389 c 2
 442 406 l 1
 412 418 377 426 344 426 c 0
290 548 m 0
 345 548 402 525 442 500 c 1
 442 595 441 689 440 783 c 1
 591 783 l 1
 592 625 592 466 592 307 c 2
 592 109 l 2
 592 73 591 36 591 0 c 1
 440 0 l 1
 440 15 441 31 441 47 c 1
 396 14 340 -6 280 -6 c 0
 135 -5 46 107 46 266 c 0
 46 431 154 548 290 548 c 0
EndSplineSet
EndChar

StartChar: e
Encoding: 101 101 61
Width: 591
Flags: MW
HStem: -10 121<357 364> 223 106<202 404 196 550 202 202> 423 121<272 328.5>
VStem: 41 515<274.5 344>
LayerCount: 2
Fore
SplineSet
303 544 m 0
 460 544 556 444 556 285 c 0
 556 264 554 243 550 223 c 1
 202 223 l 1
 223 154 277 112 357 111 c 0
 396 111 435 121 468 142 c 1
 534 45 l 1
 471 9 400 -10 328 -10 c 0
 148 -10 41 92 41 262 c 0
 41 426 151 544 303 544 c 0
404 329 m 1
 391 383 354 423 303 423 c 0
 241 423 207 382 196 329 c 1
 404 329 l 1
EndSplineSet
EndChar

StartChar: f
Encoding: 102 102 62
Width: 490
Flags: MW
HStem: 0 21G<152 303 152 152> 404 134<28 152 28 152 303 467> 688 127<370.5 388 312 403.5>
VStem: 152 151<0 404 0 404 538 593>
LayerCount: 2
Fore
SplineSet
303 538 m 1
 467 538 l 1
 467 404 l 1
 303 404 l 1
 303 0 l 1
 152 0 l 1
 152 404 l 1
 28 404 l 1
 28 538 l 1
 152 538 l 1
 152 593 l 2
 152 724 255 815 369 815 c 0
 407 815 446 805 483 783 c 1
 445 673 l 1
 429 683 412 688 395 688 c 0
 346 688 303 649 303 593 c 2
 303 538 l 1
EndSplineSet
EndChar

StartChar: g
Encoding: 103 103 63
Width: 599
Flags: MW
HStem: -319 130<259 341 259 365> -44 119<290.5 313.5 265 353> 150 108<270.5 280 280 282> 429 93<267.5 399> 429 111<267.5 317 233 318.5>
VStem: 44 97<-116.5 -100> 54 148<321.5 370 321.5 399.5> 66 112<114.5 131.5> 387 139<316 366> 446 140<-134.5 -79>
LayerCount: 2
Fore
SplineSet
446 -109 m 0xe440
 446 -49 380 -44 326 -44 c 0
 255 -44 195 -40 151 -24 c 1
 145 -39 141 -56 141 -73 c 0
 141 -160 213 -189 305 -189 c 0
 377 -189 446 -160 446 -109 c 0xe440
280 -319 m 0
 144 -319 44 -256 44 -126 c 0xf440
 44 -74 61 -24 93 15 c 1
 75 37 66 68 66 110 c 0xf1
 66 153 80 190 105 218 c 1
 74 250 54 290 54 341 c 0
 54 458 168 540 298 540 c 0xea
 336 540 368 534 399 522 c 1
 577 523 l 1
 577 427 l 1
 510 426 l 1
 519 407 526 379 526 353 c 0
 526 241 415 150 282 150 c 2
 280 150 l 2
 245 150 212 157 181 169 c 1
 180 162 178 154 178 146 c 0xf180
 178 83 228 75 302 75 c 0
 325 75 349 76 375 76 c 0
 477 76 586 25 586 -93 c 0
 586 -212 450 -319 280 -319 c 0
293 429 m 0xea80
 242 429 202 394 202 346 c 0
 202 297 245 258 296 258 c 0
 343 258 387 291 387 341 c 0
 387 391 344 429 293 429 c 0xea80
EndSplineSet
EndChar

StartChar: h
Encoding: 104 104 64
Width: 602
Flags: MW
HStem: 0 21G<63 214 63 63 401 401 401 552> 410 133<289 439> 763 20G<62 213 213 213>
VStem: 62 151<727 783> 401 151<0 50.5>
LayerCount: 2
Fore
SplineSet
306 410 m 0
 272 410 241 397 213 377 c 1
 213 251 214 126 214 0 c 1
 63 0 l 1
 63 242 62 485 62 727 c 2
 62 783 l 1
 213 783 l 1
 213 727 l 1
 213 489 l 1
 261 522 320 543 374 543 c 0
 504 543 551 436 551 316 c 0
 551 211 551 105 552 0 c 1
 401 0 l 1
 401 101 400 202 400 303 c 0
 400 365 362 410 306 410 c 0
EndSplineSet
EndChar

StartChar: i
Encoding: 105 105 65
Width: 293
Flags: MW
HStem: 0 21G<76 76 76 227> 513 20G<76 227 227 227> 513 20G<76 227 227 227> 690 154<69 233 69 233>
VStem: 69 164<690 844 690 844> 76 151<0 533 0 533>
LayerCount: 2
Fore
SplineSet
69 690 m 1x98
 69 844 l 1
 233 844 l 1
 233 690 l 1
 69 690 l 1x98
76 0 m 1xd4
 76 533 l 1
 227 533 l 1
 227 0 l 1
 76 0 l 1xd4
EndSplineSet
EndChar

StartChar: j
Encoding: 106 106 66
Width: 385
Flags: MW
HStem: -320 137<79 90 67.5 141.5> 515 20G<146 297 297 297> 683 159<139 303 139 303>
VStem: 139 164<683 842 683 842> 146 151<-106 535>
LayerCount: 2
Fore
SplineSet
139 683 m 1xf0
 139 842 l 1
 303 842 l 1
 303 683 l 1
 139 683 l 1xf0
59 -182 m 1
 62 -182 66 -183 69 -183 c 0
 111 -183 146 -149 146 -106 c 2
 146 535 l 1
 297 535 l 1
 297 -106 l 2xe8
 297 -226 200 -320 83 -320 c 0
 75 -320 67 -320 59 -319 c 1
 59 -182 l 1
EndSplineSet
EndChar

StartChar: k
Encoding: 107 107 67
Width: 630
Flags: MW
HStem: 0 21G<95 95 95 246 442 442 442 625> 513 20G<415 604 604 604> 513 20G<415 604 604 604> 763 20G<95 246 246 246>
VStem: 95 151<0 218 374 783>
LayerCount: 2
Fore
SplineSet
95 0 m 1xd8
 95 783 l 1
 246 783 l 1
 246 374 l 1
 415 533 l 1
 604 533 l 1
 356 294 l 1
 625 0 l 1
 442 0 l 1
 246 218 l 1
 246 0 l 1
 95 0 l 1xd8
EndSplineSet
EndChar

StartChar: l
Encoding: 108 108 68
Width: 304
Flags: MW
HStem: 1 21G<81 81 81 232> 763 20G<81 231 231 231>
VStem: 81 151<1 783>
LayerCount: 2
Fore
SplineSet
81 1 m 1
 81 783 l 1
 231 783 l 1
 232 1 l 1
 81 1 l 1
EndSplineSet
EndChar

StartChar: m
Encoding: 109 109 69
Width: 943
Flags: MW
HStem: 1 21G<402 553 402 402 734 884 734 734> 412 130<627 765.5> 513 20G<72 223 223 223> 513 20G<72 223 223 223>
VStem: 72 151<313 495 495 533> 403 151<288.5 348 285 367.5> 734 150<1 343>
LayerCount: 2
Fore
SplineSet
706 542 m 0xce
 825 542 884 447 884 343 c 2
 884 1 l 1
 734 1 l 1
 733 113 733 224 733 336 c 0
 733 382 692 412 645 412 c 0xce
 609 412 581 398 552 377 c 1
 553 366 554 354 554 342 c 0
 554 228 554 115 553 1 c 1
 402 1 l 1
 403 116 403 231 403 346 c 0
 403 389 366 418 321 418 c 0
 285 418 253 402 223 380 c 1
 223 246 223 142 222 0 c 1
 71 0 l 1
 72 159 72 271 72 431 c 2
 72 533 l 1
 223 533 l 1xae
 223 495 l 1
 269 526 323 545 375 545 c 0
 446 545 491 512 520 467 c 1
 570 513 641 542 706 542 c 0xce
EndSplineSet
EndChar

StartChar: n
Encoding: 110 110 70
Width: 614
Flags: MW
HStem: 0 21G<63 214 63 63 412 563 412 412> 408 134<300 450.5> 513 20G<65 216 216 216> 513 20G<65 216 216 216>
VStem: 65 151<305 481 481 533> 412 151<0 315 315 326 0 342.5>
LayerCount: 2
Fore
SplineSet
387 542 m 0xcc
 514 542 563 443 563 326 c 2
 563 0 l 1
 412 0 l 1
 412 315 l 2
 412 370 373 408 321 408 c 0xcc
 279 408 247 390 216 366 c 1
 216 244 215 122 214 0 c 1
 63 0 l 1
 64 144 65 287 65 431 c 2
 65 533 l 1
 216 533 l 1xac
 216 481 l 1
 267 518 328 542 387 542 c 0xcc
EndSplineSet
EndChar

StartChar: o
Encoding: 111 111 71
Width: 624
Flags: MW
HStem: -10 130<281.5 359 281.5 393.5> 414 127<270 346.5>
VStem: 40 154<232.5 314 232.5 346.5> 434 152<224 306.5>
LayerCount: 2
Fore
SplineSet
311 414 m 0
 229 414 194 350 194 278 c 0
 194 187 246 120 317 120 c 0
 401 120 434 185 434 263 c 0
 434 350 382 414 311 414 c 0
315 -10 m 0
 143 -10 40 101 40 266 c 0
 40 427 152 541 312 541 c 0
 481 541 586 431 586 269 c 0
 586 104 472 -10 315 -10 c 0
EndSplineSet
EndChar

StartChar: p
Encoding: 112 112 72
Width: 642
Flags: MW
HStem: -300 21G<63 213 63 63> -13 123<324 342 278 425> 426 114<295 456.5> 513 20G<63 213 213 213> 513 20G<63 213 213 213>
VStem: 65 151<125 137 125 175.5> 459 150<219 312>
LayerCount: 2
Fore
SplineSet
350 -13 m 0xe6
 298 -13 252 1 215 20 c 1
 215 -86 214 -193 213 -300 c 1
 63 -300 l 1
 64 -165 65 -30 65 104 c 0
 65 247 63 391 63 533 c 1
 213 533 l 1xd6
 213 517 214 501 214 485 c 1
 267 519 329 540 386 540 c 0
 527 540 609 414 609 269 c 0
 609 105 500 -13 350 -13 c 0xe6
215 390 m 1
 217 306 216 221 216 137 c 2
 216 125 l 1
 240 116 265 110 291 110 c 0
 393 110 459 170 459 268 c 0
 459 356 397 426 316 426 c 0xe6
 274 426 246 412 215 390 c 1
EndSplineSet
EndChar

StartChar: q
Encoding: 113 113 73
Width: 649
Flags: MW
HStem: -300 21G<443 594 443 443> -7 104<317.5 329.5> 433 110<297.5 331 230.5 363> 513 20G<443 594 594 594> 513 20G<443 594 594 594>
VStem: 33 157<217 311.5 217 340> 443 151<-300 26 26 26 114 403 403 403 504 533 -300 533>
LayerCount: 2
Fore
SplineSet
305 543 m 0xe6
 357 543 407 526 443 504 c 1
 443 533 l 1
 594 533 l 1xd6
 594 -300 l 1
 443 -300 l 1
 443 26 l 1
 401 5 354 -7 305 -7 c 0
 153 -7 33 98 33 263 c 0
 33 417 156 543 305 543 c 0xe6
363 97 m 0
 394 97 419 103 443 114 c 1
 443 403 l 1
 414 422 380 433 346 433 c 0xe6
 249 433 190 353 190 270 c 0
 190 164 272 97 363 97 c 0
EndSplineSet
EndChar

StartChar: r
Encoding: 114 114 74
Width: 443
Flags: MW
HStem: 0 21G<71 221 71 71> 412 131<341.5 373> 513 20G<71 221 221 221> 513 20G<71 221 221 221>
VStem: 71 150<0 357 0 486 486 533>
LayerCount: 2
Fore
SplineSet
368 412 m 0xc8
 306 412 264 388 221 357 c 1
 221 0 l 1
 71 0 l 1
 71 533 l 1
 221 533 l 1xa8
 221 486 l 1
 259 517 312 543 371 543 c 0
 385 543 400 542 414 539 c 1
 399 409 l 1
 389 411 378 412 368 412 c 0xc8
EndSplineSet
EndChar

StartChar: s
Encoding: 115 115 75
Width: 529
Flags: MW
HStem: -6 122<227 277.5 227 306> 430 111<268.5 294.5 199 308>
VStem: 56 152<370 407.5 370 428>
LayerCount: 2
Fore
SplineSet
286 430 m 0
 251 430 208 426 208 389 c 0
 208 351 271 340 327 328 c 1
 415 311 506 268 506 169 c 0
 506 61 375 -6 237 -6 c 0
 161 -6 87 15 21 53 c 1
 75 165 l 1
 131 133 194 116 260 116 c 0
 295 116 333 123 337 154 c 1
 341 198 283 200 235 209 c 0
 148 226 56 276 56 383 c 0
 56 473 141 541 257 541 c 0
 332 541 394 521 453 490 c 1
 407 386 l 1
 373 415 330 430 286 430 c 0
EndSplineSet
EndChar

StartChar: t
Encoding: 116 116 76
Width: 464
Flags: MW
HStem: -6 128<232 340.5> 409 130<286 433>
VStem: 135 151<180.5 203 203 245 245 408 408 408 539 612 612 612>
LayerCount: 2
Fore
SplineSet
28 408 m 1
 25 539 l 1
 135 539 l 1
 135 612 l 1
 286 704 l 1
 286 539 l 1
 433 539 l 1
 433 409 l 1
 286 409 l 1
 286 245 l 1
 286 203 l 2
 286 158 290 122 331 122 c 0
 350 122 368 126 384 134 c 1
 427 27 l 1
 379 5 328 -6 276 -6 c 0
 188 -6 135 64 135 155 c 2
 135 408 l 1
 28 408 l 1
EndSplineSet
EndChar

StartChar: u
Encoding: 117 117 77
Width: 612
Flags: MW
HStem: -10 110<205.5 343> 0 21G<409 560 409 409> 513 20G<67 218 218 218 409 560 560 560> 513 20G<67 218 218 218 409 560 560 560>
VStem: 68 150<111 214> 409 151<0 32 32 32 132 533 0 533>
LayerCount: 2
Fore
SplineSet
218 214 m 2xac
 218 150 256 100 327 100 c 0xac
 359 100 387 112 409 132 c 1
 409 533 l 1
 560 533 l 1
 560 0 l 1
 409 0 l 1x6c
 409 32 l 1
 367 5 318 -10 265 -10 c 0
 146 -10 68 58 68 164 c 2
 67 533 l 1
 218 533 l 1
 218 214 l 2xac
EndSplineSet
EndChar

StartChar: v
Encoding: 118 118 78
Width: 589
Flags: MW
HStem: 0 21G<234 371 234 234> 513 20G<16 180 180 180 416 580 580 580> 513 20G<16 180 180 180 416 580 580 580>
LayerCount: 2
Fore
SplineSet
16 533 m 1xc0
 180 533 l 1
 300 194 l 1
 416 533 l 1
 580 533 l 1
 371 0 l 1
 234 0 l 1
 16 533 l 1xc0
EndSplineSet
EndChar

StartChar: w
Encoding: 119 119 79
Width: 940
Flags: MW
HStem: 0 21G<236 373 236 236 564 701 564 564> 513 20G<40 191 191 191 404 541 541 541 765 930 930 930> 513 20G<40 191 191 191 404 541 541 541 765 930 930 930>
LayerCount: 2
Fore
SplineSet
40 533 m 1xc0
 191 533 l 1
 303 211 l 1
 404 533 l 1
 541 533 l 1
 639 198 l 1
 765 533 l 1
 930 533 l 1
 701 0 l 1
 564 0 l 1
 471 310 l 1
 373 0 l 1
 236 0 l 1
 40 533 l 1xc0
EndSplineSet
EndChar

StartChar: x
Encoding: 120 120 80
Width: 596
Flags: MW
HStem: 0 21G<21 199 21 21 396 572 396 396> 513 20G<60 236 236 236 399 577 577 577> 513 20G<60 236 236 236 399 577 577 577>
LayerCount: 2
Fore
SplineSet
60 533 m 1xc0
 236 533 l 1
 310 416 l 1
 399 533 l 1
 577 533 l 1
 396 278 l 1
 572 0 l 1
 396 0 l 1
 307 141 l 1
 199 0 l 1
 21 0 l 1
 221 278 l 1
 60 533 l 1xc0
EndSplineSet
EndChar

StartChar: y
Encoding: 121 121 81
Width: 599
Flags: MW
HStem: -300 21G<43 206 43 43> 513 20G<25 187 187 187 431 582 582 582> 513 20G<25 187 187 187 431 582 582 582>
LayerCount: 2
Fore
SplineSet
25 533 m 1xc0
 187 533 l 1
 301 255 l 1
 431 533 l 1
 582 533 l 1
 206 -300 l 1
 43 -300 l 1
 219 78 l 1
 25 533 l 1xc0
EndSplineSet
EndChar

StartChar: z
Encoding: 122 122 82
Width: 528
Flags: MW
HStem: 0 130<224 494 45 45> 402 130<88 88>
LayerCount: 2
Fore
SplineSet
88 402 m 1
 88 532 l 1
 484 533 l 1
 484 403 l 1
 224 130 l 1
 494 130 l 1
 494 0 l 1
 45 0 l 1
 45 130 l 1
 304 403 l 1
 88 402 l 1
EndSplineSet
EndChar

StartChar: bar
Encoding: 124 124 83
Width: 121
Flags: MW
HStem: -21 20G<-9 142 142 142> 1 21G<-9 -9 -9 142> 512 20G<-9 142 142 142> 512 20G<-9 142 142 142> 535 21G<-9 142 -9 -9>
VStem: -9 151<-377 -1 -377 -1 1 532 535 847>
LayerCount: 2
Fore
SplineSet
-9 847 m 1xcc
 142 847 l 1
 142 535 l 1
 -9 535 l 1
 -9 847 l 1xcc
-9 1 m 1
 -9 532 l 1
 142 532 l 1xec
 142 1 l 1
 -9 1 l 1
-9 -377 m 1
 -9 -1 l 1
 142 -1 l 1
 142 -377 l 1
 -9 -377 l 1
EndSplineSet
EndChar
